# xmcd CD database file
#
# Track frame offsets:
#	150
#	25337
#	50052
#	71862
#	94475
#	114205
#	138397
#	156845
#	175592
#	196407
#
# Disc length: 2862 seconds
#
# Revision: 0
# Processed by: cddbd v1.5.1PL2 Copyright (c) Steve Scherf et al.
# Submitted via: CDex 1.51
#
DISCID=8c0b2c0a
DTITLE=田中美奈子 - ROLL ON
DYEAR=1994
DGENRE=J-Pop
TTITLE0=ラスト・グラジュエイション
TTITLE1=DEAR FRIEND-終わらない夏
TTITLE2=もっと　はじけて　私の前で
TTITLE3=I'M STILL WAITING FOR YOU
TTITLE4=探さないで
TTITLE5=勇気になりたくて
TTITLE6=もう一度　ROLL ON
TTITLE7=JUST NOW
TTITLE8=DANCIN' IN THE MOON
TTITLE9=今も愛してる
EXTD=YEAR: 1994
EXTT0=
EXTT1=
EXTT2=
EXTT3=
EXTT4=
EXTT5=
EXTT6=
EXTT7=
EXTT8=
EXTT9=
PLAYORDER=
